<mxfile host="app.diagrams.net" agent="Mozilla/5.0 (Macintosh; Intel Mac OS X 10_15_7) AppleWebKit/537.36 (KHTML, like Gecko) Chrome/133.0.0.0 Safari/537.36" version="26.0.16">
  <diagram name="第 1 页" id="8RukFTKPfJZHeRM6X0WE">
    <mxGraphModel dx="1242" dy="700" grid="1" gridSize="10" guides="1" tooltips="1" connect="1" arrows="1" fold="1" page="1" pageScale="1" pageWidth="827" pageHeight="1169" math="0" shadow="0">
      <root>
        <mxCell id="0" />
        <mxCell id="1" parent="0" />
        <mxCell id="v5mwk4EwAjNl2FictXbT-10" style="edgeStyle=orthogonalEdgeStyle;rounded=0;orthogonalLoop=1;jettySize=auto;html=1;exitX=0.5;exitY=1;exitDx=0;exitDy=0;entryX=0.5;entryY=0;entryDx=0;entryDy=0;" edge="1" parent="1" source="v5mwk4EwAjNl2FictXbT-1" target="v5mwk4EwAjNl2FictXbT-2">
          <mxGeometry relative="1" as="geometry" />
        </mxCell>
        <mxCell id="v5mwk4EwAjNl2FictXbT-1" value="&lt;span style=&quot;font-family: Menlo, &amp;quot;Roboto Mono&amp;quot;, &amp;quot;Courier New&amp;quot;, Courier, monospace, Inter, sans-serif; text-align: start; background-color: rgb(255, 255, 255);&quot;&gt;&lt;font style=&quot;color: rgb(0, 0, 0); font-size: 18px;&quot;&gt;&lt;b style=&quot;&quot;&gt;initLifecycle&lt;/b&gt;&lt;/font&gt;&lt;/span&gt;" style="rounded=0;whiteSpace=wrap;html=1;" vertex="1" parent="1">
          <mxGeometry x="67.5" y="70" width="165" height="60" as="geometry" />
        </mxCell>
        <mxCell id="v5mwk4EwAjNl2FictXbT-11" style="edgeStyle=orthogonalEdgeStyle;rounded=0;orthogonalLoop=1;jettySize=auto;html=1;exitX=0.5;exitY=1;exitDx=0;exitDy=0;entryX=0.5;entryY=0;entryDx=0;entryDy=0;" edge="1" parent="1" source="v5mwk4EwAjNl2FictXbT-2" target="v5mwk4EwAjNl2FictXbT-3">
          <mxGeometry relative="1" as="geometry" />
        </mxCell>
        <mxCell id="v5mwk4EwAjNl2FictXbT-2" value="&lt;h3 style=&quot;font-weight: var(--ds-font-weight-strong); font-size: calc(var(--ds-md-zoom)*16px); line-height: 1.5; margin: calc(var(--ds-md-zoom)*16px)0 calc(var(--ds-md-zoom)*12px)0; color: rgb(64, 64, 64); font-family: Inter, system-ui, -apple-system, &amp;quot;system-ui&amp;quot;, &amp;quot;Segoe UI&amp;quot;, Roboto, &amp;quot;Noto Sans&amp;quot;, Ubuntu, Cantarell, &amp;quot;Helvetica Neue&amp;quot;, Oxygen, &amp;quot;Open Sans&amp;quot;, sans-serif; text-align: start;&quot;&gt;&lt;strong&gt;1、父子关系建立&lt;/strong&gt;&lt;/h3&gt;" style="rounded=0;whiteSpace=wrap;html=1;" vertex="1" parent="1">
          <mxGeometry x="90" y="160" width="120" height="60" as="geometry" />
        </mxCell>
        <mxCell id="v5mwk4EwAjNl2FictXbT-3" value="&lt;h3 style=&quot;font-weight: var(--ds-font-weight-strong); font-size: calc(var(--ds-md-zoom)*16px); line-height: 1.5; margin: calc(var(--ds-md-zoom)*16px)0 calc(var(--ds-md-zoom)*12px)0; color: rgb(64, 64, 64); font-family: Inter, system-ui, -apple-system, &amp;quot;system-ui&amp;quot;, &amp;quot;Segoe UI&amp;quot;, Roboto, &amp;quot;Noto Sans&amp;quot;, Ubuntu, Cantarell, &amp;quot;Helvetica Neue&amp;quot;, Oxygen, &amp;quot;Open Sans&amp;quot;, sans-serif; text-align: start;&quot;&gt;&lt;strong&gt;2、属性初始化&lt;/strong&gt;&lt;/h3&gt;" style="rounded=0;whiteSpace=wrap;html=1;" vertex="1" parent="1">
          <mxGeometry x="90" y="300" width="120" height="60" as="geometry" />
        </mxCell>
        <mxCell id="v5mwk4EwAjNl2FictXbT-4" value="&lt;ul style=&quot;margin: calc(var(--ds-md-zoom)*12px)0; padding-left: calc(var(--ds-md-zoom)*24px); color: rgb(64, 64, 64); font-family: Inter, system-ui, -apple-system, &amp;quot;system-ui&amp;quot;, &amp;quot;Segoe UI&amp;quot;, Roboto, &amp;quot;Noto Sans&amp;quot;, Ubuntu, Cantarell, &amp;quot;Helvetica Neue&amp;quot;, Oxygen, &amp;quot;Open Sans&amp;quot;, sans-serif; text-align: start;&quot;&gt;&lt;li&gt;&lt;p style=&quot;margin-top: 0px; margin-right: 0px; margin-left: 0px; line-height: var(--ds-md-line-height); margin-bottom: 0px !important;&quot;&gt;&lt;strong&gt;处理抽象父组件&lt;/strong&gt;：若当前实例的父组件是抽象组件（如&lt;code style=&quot;font-weight: var(--ds-font-weight-strong); font-family: var(--ds-font-family-code); background-color: var(--ds-md-inline-code-color,#ececec); border-radius: 4px; padding: 0.15rem 0.3rem;&quot;&gt;keep-alive&lt;/code&gt;），则向上查找第一个非抽象父组件，&lt;font&gt;&lt;span style=&quot;color: light-dark(rgb(64, 64, 64), rgb(182, 182, 182)); background-color: transparent;&quot;&gt;通过&lt;/span&gt;&lt;code style=&quot;color: light-dark(rgb(64, 64, 64), rgb(182, 182, 182)); font-weight: var(--ds-font-weight-strong); font-family: var(--ds-font-family-code); background-color: var(--ds-md-inline-code-color,#ececec); border-radius: 4px; padding: 0.15rem 0.3rem;&quot;&gt;while&lt;/code&gt;&lt;span style=&quot;color: light-dark(rgb(64, 64, 64), rgb(182, 182, 182)); background-color: transparent;&quot;&gt;循环跳过抽象父组件，确保父子关系准确&lt;/span&gt;&lt;/font&gt;&lt;/p&gt;&lt;/li&gt;&lt;li style=&quot;margin-top: 4px;&quot;&gt;&lt;p style=&quot;margin-top: 0px; margin-right: 0px; margin-left: 0px; line-height: var(--ds-md-line-height); margin-bottom: 0px !important;&quot;&gt;&lt;strong&gt;更新父组件的&lt;code style=&quot;font-weight: var(--ds-font-weight-strong); font-family: var(--ds-font-family-code); background-color: var(--ds-md-inline-code-color,#ececec); border-radius: 4px; padding: 0.15rem 0.3rem;&quot;&gt;$children&lt;/code&gt;&lt;/strong&gt;：将当前实例添加到父组件的&lt;code style=&quot;font-weight: var(--ds-font-weight-strong); font-family: var(--ds-font-family-code); background-color: var(--ds-md-inline-code-color,#ececec); border-radius: 4px; padding: 0.15rem 0.3rem;&quot;&gt;$children&lt;/code&gt;数组中，形成组件树结构。&lt;/p&gt;&lt;/li&gt;&lt;li style=&quot;margin-top: 4px;&quot;&gt;&lt;p style=&quot;margin: 0px 0px 4px; line-height: var(--ds-md-line-height);&quot;&gt;&lt;strong&gt;设置&lt;code style=&quot;font-weight: var(--ds-font-weight-strong); font-family: var(--ds-font-family-code); background-color: var(--ds-md-inline-code-color,#ececec); border-radius: 4px; padding: 0.15rem 0.3rem;&quot;&gt;$parent&lt;/code&gt;和&lt;code style=&quot;font-weight: var(--ds-font-weight-strong); font-family: var(--ds-font-family-code); background-color: var(--ds-md-inline-code-color,#ececec); border-radius: 4px; padding: 0.15rem 0.3rem;&quot;&gt;$root&lt;/code&gt;&lt;/strong&gt;：&lt;/p&gt;&lt;ul style=&quot;margin-top: 4px; margin-right: ; margin-bottom: 0px; margin-left: ; padding-left: calc(var(--ds-md-zoom)*24px);&quot;&gt;&lt;li&gt;&lt;p style=&quot;margin-top: 0px; margin-right: 0px; margin-left: 0px; line-height: var(--ds-md-line-height); margin-bottom: 0px !important;&quot;&gt;&lt;code style=&quot;font-weight: var(--ds-font-weight-strong); font-family: var(--ds-font-family-code); background-color: var(--ds-md-inline-code-color,#ececec); border-radius: 4px; padding: 0.15rem 0.3rem;&quot;&gt;$parent&lt;/code&gt;指向找到的非抽象父组件。&lt;/p&gt;&lt;/li&gt;&lt;li style=&quot;margin-top: 4px;&quot;&gt;&lt;p style=&quot;margin-top: 0px; margin-right: 0px; margin-left: 0px; line-height: var(--ds-md-line-height); margin-bottom: 0px !important;&quot;&gt;&lt;code style=&quot;font-weight: var(--ds-font-weight-strong); font-family: var(--ds-font-family-code); background-color: var(--ds-md-inline-code-color,#ececec); border-radius: 4px; padding: 0.15rem 0.3rem;&quot;&gt;$root&lt;/code&gt;指向根实例（若当前实例无父组件，则自身为根）。&lt;font&gt;&lt;span style=&quot;color: light-dark(rgb(64, 64, 64), rgb(182, 182, 182)); background-color: transparent;&quot;&gt;利用父组件的&lt;/span&gt;&lt;code style=&quot;color: light-dark(rgb(64, 64, 64), rgb(182, 182, 182)); font-weight: var(--ds-font-weight-strong); font-family: var(--ds-font-family-code); background-color: var(--ds-md-inline-code-color,#ececec); border-radius: 4px; padding: 0.15rem 0.3rem;&quot;&gt;$root&lt;/code&gt;&lt;span style=&quot;color: light-dark(rgb(64, 64, 64), rgb(182, 182, 182)); background-color: transparent;&quot;&gt;传递，保证所有组件共享同一根实例&lt;/span&gt;&lt;/font&gt;&lt;/p&gt;&lt;/li&gt;&lt;/ul&gt;&lt;/li&gt;&lt;/ul&gt;" style="shape=note;whiteSpace=wrap;html=1;backgroundOutline=1;darkOpacity=0.05;fontSize=11;spacingLeft=23;" vertex="1" parent="1">
          <mxGeometry x="290" y="135" width="630" height="110" as="geometry" />
        </mxCell>
        <mxCell id="v5mwk4EwAjNl2FictXbT-5" style="edgeStyle=orthogonalEdgeStyle;rounded=0;orthogonalLoop=1;jettySize=auto;html=1;exitX=1;exitY=0.5;exitDx=0;exitDy=0;entryX=0;entryY=0.5;entryDx=0;entryDy=0;entryPerimeter=0;" edge="1" parent="1" source="v5mwk4EwAjNl2FictXbT-2" target="v5mwk4EwAjNl2FictXbT-4">
          <mxGeometry relative="1" as="geometry" />
        </mxCell>
        <mxCell id="v5mwk4EwAjNl2FictXbT-6" value="&lt;ul style=&quot;margin: calc(var(--ds-md-zoom)*12px)0; padding-left: calc(var(--ds-md-zoom)*24px); color: rgb(64, 64, 64); font-family: Inter, system-ui, -apple-system, &amp;quot;system-ui&amp;quot;, &amp;quot;Segoe UI&amp;quot;, Roboto, &amp;quot;Noto Sans&amp;quot;, Ubuntu, Cantarell, &amp;quot;Helvetica Neue&amp;quot;, Oxygen, &amp;quot;Open Sans&amp;quot;, sans-serif; text-align: start;&quot;&gt;&lt;li style=&quot;&quot;&gt;&lt;p style=&quot;margin-top: 0px; margin-right: 0px; margin-left: 0px; line-height: var(--ds-md-line-height); margin-bottom: 0px !important;&quot;&gt;&lt;font style=&quot;font-size: 11px;&quot;&gt;&lt;strong style=&quot;&quot;&gt;&lt;code style=&quot;font-weight: var(--ds-font-weight-strong); font-family: var(--ds-font-family-code); background-color: var(--ds-md-inline-code-color,#ececec); border-radius: 4px; padding: 0.15rem 0.3rem;&quot;&gt;$children&lt;/code&gt;&lt;/strong&gt;：初始化为空数组，用于存储子组件实例。&lt;/font&gt;&lt;/p&gt;&lt;/li&gt;&lt;li style=&quot;margin-top: 4px;&quot;&gt;&lt;p style=&quot;margin-top: 0px; margin-right: 0px; margin-left: 0px; line-height: var(--ds-md-line-height); margin-bottom: 0px !important;&quot;&gt;&lt;font style=&quot;font-size: 11px;&quot;&gt;&lt;strong&gt;&lt;code style=&quot;font-weight: var(--ds-font-weight-strong); font-family: var(--ds-font-family-code); background-color: var(--ds-md-inline-code-color,#ececec); border-radius: 4px; padding: 0.15rem 0.3rem;&quot;&gt;$refs&lt;/code&gt;&lt;/strong&gt;：初始化为空对象，后续通过&lt;code style=&quot;font-weight: var(--ds-font-weight-strong); font-family: var(--ds-font-family-code); background-color: var(--ds-md-inline-code-color,#ececec); border-radius: 4px; padding: 0.15rem 0.3rem;&quot;&gt;ref&lt;/code&gt;属性注册的子组件或DOM元素会填充。&lt;/font&gt;&lt;/p&gt;&lt;/li&gt;&lt;li style=&quot;margin-top: 4px;&quot;&gt;&lt;p style=&quot;margin: 0px 0px 4px; line-height: var(--ds-md-line-height);&quot;&gt;&lt;font style=&quot;font-size: 11px;&quot;&gt;&lt;strong&gt;生命周期状态标志&lt;/strong&gt;：&lt;/font&gt;&lt;/p&gt;&lt;ul style=&quot;margin-top: 4px; margin-right: ; margin-bottom: 0px; margin-left: ; padding-left: calc(var(--ds-md-zoom)*24px);&quot;&gt;&lt;li&gt;&lt;p style=&quot;margin-top: 0px; margin-right: 0px; margin-left: 0px; line-height: var(--ds-md-line-height); margin-bottom: 0px !important;&quot;&gt;&lt;font style=&quot;font-size: 11px;&quot;&gt;&lt;code style=&quot;font-weight: var(--ds-font-weight-strong); font-family: var(--ds-font-family-code); background-color: var(--ds-md-inline-code-color,#ececec); border-radius: 4px; padding: 0.15rem 0.3rem;&quot;&gt;_isMounted&lt;/code&gt;：标记是否已挂载。&lt;/font&gt;&lt;/p&gt;&lt;/li&gt;&lt;li style=&quot;margin-top: 4px;&quot;&gt;&lt;p style=&quot;margin-top: 0px; margin-right: 0px; margin-left: 0px; line-height: var(--ds-md-line-height); margin-bottom: 0px !important;&quot;&gt;&lt;font style=&quot;font-size: 11px;&quot;&gt;&lt;code style=&quot;font-weight: var(--ds-font-weight-strong); font-family: var(--ds-font-family-code); background-color: var(--ds-md-inline-code-color,#ececec); border-radius: 4px; padding: 0.15rem 0.3rem;&quot;&gt;_isDestroyed&lt;/code&gt;和&lt;code style=&quot;font-weight: var(--ds-font-weight-strong); font-family: var(--ds-font-family-code); background-color: var(--ds-md-inline-code-color,#ececec); border-radius: 4px; padding: 0.15rem 0.3rem;&quot;&gt;_isBeingDestroyed&lt;/code&gt;：标记销毁状态。&lt;/font&gt;&lt;/p&gt;&lt;/li&gt;&lt;li style=&quot;margin-top: 4px;&quot;&gt;&lt;p style=&quot;margin-top: 0px; margin-right: 0px; margin-left: 0px; line-height: var(--ds-md-line-height); margin-bottom: 0px !important;&quot;&gt;&lt;font style=&quot;font-size: 11px;&quot;&gt;&lt;code style=&quot;font-weight: var(--ds-font-weight-strong); font-family: var(--ds-font-family-code); background-color: var(--ds-md-inline-code-color,#ececec); border-radius: 4px; padding: 0.15rem 0.3rem;&quot;&gt;_inactive&lt;/code&gt;和&lt;code style=&quot;font-weight: var(--ds-font-weight-strong); font-family: var(--ds-font-family-code); background-color: var(--ds-md-inline-code-color,#ececec); border-radius: 4px; padding: 0.15rem 0.3rem;&quot;&gt;_directInactive&lt;/code&gt;：用于&lt;code style=&quot;font-weight: var(--ds-font-weight-strong); font-family: var(--ds-font-family-code); background-color: var(--ds-md-inline-code-color,#ececec); border-radius: 4px; padding: 0.15rem 0.3rem;&quot;&gt;keep-alive&lt;/code&gt;组件的激活状态管理。&lt;/font&gt;&lt;/p&gt;&lt;/li&gt;&lt;/ul&gt;&lt;/li&gt;&lt;li style=&quot;margin-top: 4px;&quot;&gt;&lt;p style=&quot;margin-top: 0px; margin-right: 0px; margin-left: 0px; line-height: var(--ds-md-line-height); margin-bottom: 0px !important;&quot;&gt;&lt;font style=&quot;font-size: 11px;&quot;&gt;&lt;strong style=&quot;&quot;&gt;&lt;code style=&quot;font-weight: var(--ds-font-weight-strong); font-family: var(--ds-font-family-code); background-color: var(--ds-md-inline-code-color,#ececec); border-radius: 4px; padding: 0.15rem 0.3rem;&quot;&gt;_watcher&lt;/code&gt;&lt;/strong&gt;：初始化为&lt;code style=&quot;font-weight: var(--ds-font-weight-strong); font-family: var(--ds-font-family-code); background-color: var(--ds-md-inline-code-color,#ececec); border-radius: 4px; padding: 0.15rem 0.3rem;&quot;&gt;null&lt;/code&gt;，后续存储实例的观察者对象。&lt;/font&gt;&lt;/p&gt;&lt;/li&gt;&lt;/ul&gt;" style="shape=note;whiteSpace=wrap;html=1;backgroundOutline=1;darkOpacity=0.05;" vertex="1" parent="1">
          <mxGeometry x="290" y="255" width="450" height="150" as="geometry" />
        </mxCell>
        <mxCell id="v5mwk4EwAjNl2FictXbT-7" style="edgeStyle=orthogonalEdgeStyle;rounded=0;orthogonalLoop=1;jettySize=auto;html=1;exitX=1;exitY=0.5;exitDx=0;exitDy=0;entryX=0;entryY=0.5;entryDx=0;entryDy=0;entryPerimeter=0;" edge="1" parent="1" source="v5mwk4EwAjNl2FictXbT-3" target="v5mwk4EwAjNl2FictXbT-6">
          <mxGeometry relative="1" as="geometry" />
        </mxCell>
        <mxCell id="v5mwk4EwAjNl2FictXbT-8" value="&lt;ul style=&quot;margin: calc(var(--ds-md-zoom)*12px)0; padding-left: calc(var(--ds-md-zoom)*24px); color: rgb(64, 64, 64); font-family: Inter, system-ui, -apple-system, &amp;quot;system-ui&amp;quot;, &amp;quot;Segoe UI&amp;quot;, Roboto, &amp;quot;Noto Sans&amp;quot;, Ubuntu, Cantarell, &amp;quot;Helvetica Neue&amp;quot;, Oxygen, &amp;quot;Open Sans&amp;quot;, sans-serif; text-align: start;&quot;&gt;&lt;li style=&quot;&quot;&gt;&lt;p style=&quot;margin-top: 0px; margin-right: 0px; margin-left: 0px; line-height: var(--ds-md-line-height); margin-bottom: 0px !important;&quot;&gt;&lt;strong style=&quot;color: light-dark(rgb(64, 64, 64), rgb(182, 182, 182)); background-color: transparent;&quot;&gt;&lt;font style=&quot;font-size: 16px;&quot;&gt;作用与意义&lt;/font&gt;&lt;/strong&gt;&lt;/p&gt;&lt;/li&gt;&lt;/ul&gt;&lt;ul style=&quot;margin: calc(var(--ds-md-zoom)*12px)0; padding-left: calc(var(--ds-md-zoom)*24px); color: rgb(64, 64, 64); font-family: Inter, system-ui, -apple-system, &amp;quot;system-ui&amp;quot;, &amp;quot;Segoe UI&amp;quot;, Roboto, &amp;quot;Noto Sans&amp;quot;, Ubuntu, Cantarell, &amp;quot;Helvetica Neue&amp;quot;, Oxygen, &amp;quot;Open Sans&amp;quot;, sans-serif; text-align: start;&quot;&gt;&lt;li style=&quot;&quot;&gt;&lt;p style=&quot;margin-top: 0px; margin-right: 0px; margin-left: 0px; line-height: var(--ds-md-line-height); margin-bottom: 0px !important;&quot;&gt;&lt;font&gt;&lt;strong&gt;组件树结构&lt;/strong&gt;：通过&lt;code style=&quot;font-weight: var(--ds-font-weight-strong); font-family: var(--ds-font-family-code); background-color: var(--ds-md-inline-code-color,#ececec); border-radius: 4px; padding: 0.15rem 0.3rem;&quot;&gt;$parent&lt;/code&gt;和&lt;code style=&quot;font-weight: var(--ds-font-weight-strong); font-family: var(--ds-font-family-code); background-color: var(--ds-md-inline-code-color,#ececec); border-radius: 4px; padding: 0.15rem 0.3rem;&quot;&gt;$children&lt;/code&gt;维护层级关系，支撑组件通信与递归操作。&lt;/font&gt;&lt;/p&gt;&lt;/li&gt;&lt;li style=&quot;margin-top: 4px;&quot;&gt;&lt;p style=&quot;margin-top: 0px; margin-right: 0px; margin-left: 0px; line-height: var(--ds-md-line-height); margin-bottom: 0px !important;&quot;&gt;&lt;font&gt;&lt;strong&gt;生命周期管理&lt;/strong&gt;：状态标志控制挂载、更新、销毁流程，避免重复操作。&lt;/font&gt;&lt;/p&gt;&lt;/li&gt;&lt;li style=&quot;margin-top: 4px;&quot;&gt;&lt;p style=&quot;margin-top: 0px; margin-right: 0px; margin-left: 0px; line-height: var(--ds-md-line-height); margin-bottom: 0px !important;&quot;&gt;&lt;font&gt;&lt;strong style=&quot;&quot;&gt;跨组件访问&lt;/strong&gt;：通过&lt;code style=&quot;font-weight: var(--ds-font-weight-strong); font-family: var(--ds-font-family-code); background-color: var(--ds-md-inline-code-color,#ececec); border-radius: 4px; padding: 0.15rem 0.3rem;&quot;&gt;$root&lt;/code&gt;实现根实例访问，便于全局状态管理。&lt;/font&gt;&lt;/p&gt;&lt;/li&gt;&lt;/ul&gt;" style="shape=note;whiteSpace=wrap;html=1;backgroundOutline=1;darkOpacity=0.05;" vertex="1" parent="1">
          <mxGeometry x="90" y="440" width="520" height="90" as="geometry" />
        </mxCell>
      </root>
    </mxGraphModel>
  </diagram>
</mxfile>
